<?xml version="1.0" encoding="utf-8"?>
<!-- Generator: Adobe Illustrator 24.0.3, SVG Export Plug-In . SVG Version: 6.00 Build 0)  -->
<svg version="1.1" id="Layer_1" xmlns="http://www.w3.org/2000/svg" xmlns:xlink="http://www.w3.org/1999/xlink" x="0px" y="0px"
	 viewBox="0 0 24 24" style="enable-background:new 0 0 24 24;" xml:space="preserve">
<style type="text/css">
	.st0{fill:none;}
	.st1{fill:#007146;}
</style>
<path class="st0" d="M0,0h24v24H0V0z"/>
<path class="st1" d="M13.1,8.1l1.4,1.4c2.7,2.7,2.7,7.2,0,9.9c0,0,0,0,0,0l-0.4,0.4c-2.7,2.7-7.2,2.7-9.9,0s-2.7-7.2,0-9.9l1.4,1.4
	c-2,1.9-2,5.1,0,7.1s5.1,2,7.1,0c0,0,0,0,0,0l0.4-0.4c2-2,2-5.1,0-7.1l-1.4-1.4L13.1,8.1L13.1,8.1z M19.8,14.1l-1.4-1.4
	c2-1.9,2-5.1,0-7.1s-5.1-2-7.1,0c0,0,0,0,0,0L10.9,6c-2,2-2,5.1,0,7.1l1.4,1.4l-1.4,1.4l-1.4-1.4c-2.7-2.7-2.7-7.2,0-9.9
	c0,0,0,0,0,0l0.4-0.4c2.7-2.7,7.2-2.7,9.9,0S22.5,11.4,19.8,14.1L19.8,14.1L19.8,14.1z"/>
</svg>
