<?xml version="1.0" encoding="utf-8"?>
<!-- Generator: Adobe Illustrator 24.0.3, SVG Export Plug-In . SVG Version: 6.00 Build 0)  -->
<svg version="1.1" id="Layer_1" xmlns="http://www.w3.org/2000/svg" xmlns:xlink="http://www.w3.org/1999/xlink" x="0px" y="0px"
	 viewBox="0 0 24 24" style="enable-background:new 0 0 24 24;" xml:space="preserve">
<style type="text/css">
	.st0{fill:none;}
	.st1{fill:#007146;}
</style>
<path class="st0" d="M0,0h24v24H0V0z"/>
<path class="st1" d="M18.3,18.3h-2.7v-4.2c0-1,0-2.3-1.4-2.3c-1.4,0-1.6,1.1-1.6,2.2v4.2H10V9.8h2.6v1.2h0c0.4-0.7,1.2-1.4,2.5-1.4
	c2.7,0,3.2,1.8,3.2,4.1L18.3,18.3L18.3,18.3z M7,8.6C6.1,8.6,5.5,7.9,5.5,7c0,0,0,0,0,0c0-0.9,0.7-1.5,1.5-1.5
	c0.9,0,1.5,0.7,1.5,1.5C8.6,7.9,7.9,8.6,7,8.6L7,8.6z M8.3,18.3H5.7V9.8h2.7L8.3,18.3L8.3,18.3z M19.7,3H4.3C3.6,3,3,3.6,3,4.3v15.4
	C3,20.4,3.6,21,4.3,21h15.3c0.7,0,1.3-0.6,1.3-1.3V4.3C21,3.6,20.4,3,19.7,3L19.7,3L19.7,3z"/>
</svg>
